# xmcd
#
# Track frame offsets:
#	150
#	4105
#	11575
#	24864
#	32251
#	44685
#	48380
#	69639
#	74595
#	96146
#	102861
#	118053
#	124550
#	140249
#	164131
#	168362
#	190037
#	208705
#	216372
#	239527
#	244443
#	259419
#	279077
#	283636
#	301944
#	313377
#	331363
#	335887
#
# Disc length: 4766 seconds
#
# Revision: 1
# Processed by: cddbd v1.5.2PL0 Copyright (c) Steve Scherf et al.
# Submitted via: FairStars CD Ripper 1.90
#
DISCID=b0129c1c
DTITLE=Michael Nesmith - Movies of the Mind
DYEAR=2013
DGENRE=Oldies
TTITLE0=Welcome
TTITLE1=Intro to Calico Triptych
TTITLE2=Calico Girlfriend
TTITLE3=Nine Times Blue
TTITLE4=Little Red Rider
TTITLE5=Intro to Propinquity
TTITLE6=Propinquity
TTITLE7=Intro to Different Drum
TTITLE8=Different Drum
TTITLE9=Intro to Some of Shelly's Blues
TTITLE10=Some of Shelly's Blues
TTITLE11=Intro to Joanne-Silver Moon Diptych
TTITLE12=Joanne
TTITLE13=Silver Moon
TTITLE14=Intro to Rio-Casablanca Moonlight Diptych
TTITLE15=Rio
TTITLE16=Casablanca Moonlight
TTITLE17=Intro to Yellow Butterfly
TTITLE18=Yellow Butterfly
TTITLE19=Intro to Light-Rays Diptych
TTITLE20=Light
TTITLE21=Rays
TTITLE22=Intro to Cruisin'-Dance-Tonight Triptych
TTITLE23=Cruisin'
TTITLE24=Dance
TTITLE25=Tonight
TTITLE26=Intro to Grand Ennui
TTITLE27=Grand Ennui
EXTD=
EXTT0=
EXTT1=
EXTT2=
EXTT3=
EXTT4=
EXTT5=
EXTT6=
EXTT7=
EXTT8=
EXTT9=
EXTT10=
EXTT11=
EXTT12=
EXTT13=
EXTT14=
EXTT15=
EXTT16=
EXTT17=
EXTT18=
EXTT19=
EXTT20=
EXTT21=
EXTT22=
EXTT23=
EXTT24=
EXTT25=
EXTT26=
EXTT27=
PLAYORDER=
